<?xml version="1.0" encoding="utf-8"?>
<svg version="1.1" xmlns:xlink="http://www.w3.org/1999/xlink" width="320px" height="28px" xmlns="http://www.w3.org/2000/svg">
  <defs>
    <mask fill="white" id="clip76">
      <path d="M 0 26  L 0 2  C 0 0.879999999999995  0.879999999999995 0  2 0  L 318 0  C 319.12 0  320 0.879999999999995  320 2  L 320 26  C 320 27.12  319.12 28  318 28  L 60 28  L 2 28  C 0.879999999999995 28  0 27.12  0 26  Z " fill-rule="evenodd" />
    </mask>
  </defs>
  <g transform="matrix(1 0 0 1 -287 -146 )">
    <path d="M 0 26  L 0 2  C 0 0.879999999999995  0.879999999999995 0  2 0  L 318 0  C 319.12 0  320 0.879999999999995  320 2  L 320 26  C 320 27.12  319.12 28  318 28  L 60 28  L 2 28  C 0.879999999999995 28  0 27.12  0 26  Z " fill-rule="nonzero" fill="#ffffff" stroke="none" transform="matrix(1 0 0 1 287 146 )" />
    <path d="M 0 26  L 0 2  C 0 0.879999999999995  0.879999999999995 0  2 0  L 318 0  C 319.12 0  320 0.879999999999995  320 2  L 320 26  C 320 27.12  319.12 28  318 28  L 60 28  L 2 28  C 0.879999999999995 28  0 27.12  0 26  Z " stroke-width="2" stroke="#d9d9d9" fill="none" transform="matrix(1 0 0 1 287 146 )" mask="url(#clip76)" />
  </g>
</svg>