<?xml version="1.0" encoding="utf-8"?>
<svg version="1.1" xmlns:xlink="http://www.w3.org/1999/xlink" width="326px" height="66px" xmlns="http://www.w3.org/2000/svg">
  <defs>
    <mask fill="white" id="clip77">
      <path d="M 0 61.2857142857143  L 0 4.71428571428571  C 0 2.0742857142857  0.896499999999995 0  2.0375 0  L 323.9625 0  C 325.1035 0  326 2.0742857142857  326 4.71428571428571  L 326 61.2857142857143  C 326 63.9257142857143  325.1035 66  323.9625 66  L 61.125 66  L 2.0375 66  C 0.896499999999995 66  0 63.9257142857143  0 61.2857142857143  Z " fill-rule="evenodd" />
    </mask>
  </defs>
  <g transform="matrix(1 0 0 1 -280 -353 )">
    <path d="M 0 61.2857142857143  L 0 4.71428571428571  C 0 2.0742857142857  0.896499999999995 0  2.0375 0  L 323.9625 0  C 325.1035 0  326 2.0742857142857  326 4.71428571428571  L 326 61.2857142857143  C 326 63.9257142857143  325.1035 66  323.9625 66  L 61.125 66  L 2.0375 66  C 0.896499999999995 66  0 63.9257142857143  0 61.2857142857143  Z " fill-rule="nonzero" fill="#ffffff" stroke="none" transform="matrix(1 0 0 1 280 353 )" />
    <path d="M 0 61.2857142857143  L 0 4.71428571428571  C 0 2.0742857142857  0.896499999999995 0  2.0375 0  L 323.9625 0  C 325.1035 0  326 2.0742857142857  326 4.71428571428571  L 326 61.2857142857143  C 326 63.9257142857143  325.1035 66  323.9625 66  L 61.125 66  L 2.0375 66  C 0.896499999999995 66  0 63.9257142857143  0 61.2857142857143  Z " stroke-width="2" stroke="#d9d9d9" fill="none" transform="matrix(1 0 0 1 280 353 )" mask="url(#clip77)" />
  </g>
</svg>