<?xml version="1.0" encoding="utf-8"?>
<svg version="1.1" xmlns:xlink="http://www.w3.org/1999/xlink" width="17px" height="10px" xmlns="http://www.w3.org/2000/svg">
  <g transform="matrix(1 0 0 1 -1437 -28 )">
    <path d="M 16.6845703125 0.329861111111112  C 16.8948567708333 0.549768518518517  17 0.810185185185183  17 1.11111111111111  C 17 1.41203703703704  16.8948567708333 1.6724537037037  16.6845703125 1.89236111111111  L 9.2470703125 9.67013888888889  C 9.03678385416667 9.8900462962963  8.78776041666667 10  8.5 10  C 8.21223958333333 10  7.96321614583333 9.8900462962963  7.7529296875 9.67013888888889  L 0.3154296875 1.89236111111111  C 0.105143229166667 1.6724537037037  0 1.41203703703704  0 1.11111111111111  C 0 0.810185185185183  0.105143229166667 0.549768518518517  0.3154296875 0.329861111111112  C 0.525716145833333 0.109953703703702  0.774739583333333 0  1.0625 0  L 15.9375 0  C 16.2252604166667 0  16.4742838541667 0.109953703703702  16.6845703125 0.329861111111112  Z " fill-rule="nonzero" fill="#ffffff" stroke="none" transform="matrix(1 0 0 1 1437 28 )" />
  </g>
</svg>