<?xml version="1.0" encoding="utf-8"?>
<svg version="1.1" xmlns:xlink="http://www.w3.org/1999/xlink" width="87px" height="83px" xmlns="http://www.w3.org/2000/svg">
  <g transform="matrix(1 0 0 1 -196 -1106 )">
    <path d="M 196 1106  L 283 1106  L 283 1189  L 196 1189  L 196 1106  " fill-rule="nonzero" fill="#cccccc" stroke="none" />
    <path d="M 202 1112  L 277 1112  L 277 1183  L 202 1183  L 202 1112  " fill-rule="nonzero" fill="#ffffff" stroke="none" />
    <path d="M 247.465 1130.9  C 243.979 1130.9  241.24 1128.161  241.24 1124.675  C 241.24 1121.189  243.979 1118.45  247.465 1118.45  C 250.951 1118.45  253.69 1121.189  253.69 1124.675  C 253.69 1128.161  250.951 1130.9  247.465 1130.9  " fill-rule="nonzero" fill="#cccccc" stroke="none" />
    <path d="M 204 1181  L 204 1144.15  L 221.75 1127.4  L 246.6 1142.64827586207  L 260.8 1137.45  L 275 1142.64827586207  L 275 1181  L 204 1181  " fill-rule="nonzero" fill="#169bd5" stroke="none" />
  </g>
</svg>