<?xml version="1.0" encoding="utf-8"?>
<svg version="1.1" xmlns:xlink="http://www.w3.org/1999/xlink" width="23px" height="13px" xmlns="http://www.w3.org/2000/svg">
  <g transform="matrix(1 0 0 1 -136 -870 )">
    <path d="M 22.5732421875 0.428819444444445  C 22.8577473958333 0.714699074074073  23 1.05324074074074  23 1.44444444444445  C 23 1.83564814814815  22.8577473958333 2.17418981481481  22.5732421875 2.46006944444445  L 12.5107421875 12.5711805555556  C 12.2262369791667 12.8570601851852  11.8893229166667 13  11.5 13  C 11.1106770833333 13  10.7737630208333 12.8570601851852  10.4892578125 12.5711805555556  L 0.4267578125 2.46006944444445  C 0.142252604166667 2.17418981481481  0 1.83564814814815  0 1.44444444444445  C 0 1.05324074074074  0.142252604166667 0.714699074074073  0.4267578125 0.428819444444445  C 0.711263020833333 0.142939814814813  1.04817708333333 0  1.4375 0  L 21.5625 0  C 21.9518229166667 0  22.2887369791667 0.142939814814813  22.5732421875 0.428819444444445  Z " fill-rule="nonzero" fill="#aaaaaa" stroke="none" transform="matrix(1 0 0 1 136 870 )" />
  </g>
</svg>