<?xml version="1.0" encoding="utf-8"?>
<svg version="1.1" xmlns:xlink="http://www.w3.org/1999/xlink" width="17px" height="15px" xmlns="http://www.w3.org/2000/svg">
  <g transform="matrix(1 0 0 1 -628 -1300 )">
    <path d="M 7.65204326923077 1.28691983122363  C 7.78145032051282 1.42053445850914  7.84615384615385 1.57876230661041  8 1.76160337552743  L 8 13.2383966244726  C 7.84615384615385 13.4212376933896  7.78145032051282 13.5794655414909  7.65204326923077 13.7130801687764  C 7.52263621794872 13.8466947960619  7.36939102564103 13.9135021097046  7.19230769230769 13.9135021097046  C 7.01522435897436 13.9135021097046  6.86197916666667 13.8466947960619  6.73257211538462 13.7130801687764  L 3.33052884615385 10.2004219409283  L 0.653846153846154 10.2004219409283  C 0.476762820512821 10.2004219409283  0.323517628205128 10.1336146272855  0.194110576923077 10  C 0.0647035256410256 9.86638537271449  0 9.70815752461322  0 9.5253164556962  L 0 5.4746835443038  C 0 5.29184247538678  0.0647035256410256 5.13361462728551  0.194110576923077 5  C 0.323517628205128 4.86638537271449  0.476762820512821 4.79957805907173  0.653846153846154 4.79957805907173  L 3.33052884615385 4.79957805907173  L 6.73257211538462 1.28691983122363  C 6.86197916666667 1.15330520393812  7.01522435897436 1.08649789029536  7.19230769230769 1.08649789029536  C 7.36939102564103 1.08649789029536  7.52263621794872 1.15330520393812  7.65204326923077 1.28691983122363  Z M 11.3350360576923 6.00210970464135  C 11.624499198718 6.4662447257384  11.7692307692308 6.96554149085794  11.7692307692308 7.5  C 11.7692307692308 8.03445850914205  11.624499198718 8.53199718706048  11.3350360576923 8.99261603375527  C 11.0455729166667 9.45323488045007  10.6624599358974 9.78199718706048  10.1856971153846 9.9789029535865  C 10.1175881410256 10.014064697609  10.0324519230769 10.0316455696203  9.93028846153846 10.0316455696203  C 9.75320512820513 10.0316455696203  9.59995993589744 9.96659634317862  9.47055288461539 9.83649789029536  C 9.34114583333333 9.70639943741209  9.27644230769231 9.5464135021097  9.27644230769231 9.35654008438819  C 9.27644230769231 9.20886075949367  9.31730769230769 9.08403656821378  9.39903846153846 8.98206751054852  C 9.48076923076923 8.88009845288326  9.57952724358974 8.79219409282701  9.6953125 8.71835443037975  C 9.81109775641026 8.64451476793249  9.92688301282051 8.56364275668073  10.0426682692308 8.47573839662447  C 10.158453525641 8.38783403656821  10.2572115384615 8.2612517580872  10.3389423076923 8.09599156118143  C 10.4206730769231 7.93073136427567  10.4615384615385 7.73206751054852  10.4615384615385 7.5  C 10.4615384615385 7.26793248945148  10.4206730769231 7.06926863572433  10.3389423076923 6.90400843881856  C 10.2572115384615 6.7387482419128  10.158453525641 6.61216596343179  10.0426682692308 6.52426160337553  C 9.92688301282051 6.43635724331927  9.81109775641026 6.35548523206751  9.6953125 6.28164556962025  C 9.57952724358974 6.20780590717299  9.48076923076923 6.11990154711674  9.39903846153846 6.01793248945148  C 9.31730769230769 5.91596343178622  9.27644230769231 5.79113924050633  9.27644230769231 5.64345991561181  C 9.27644230769231 5.45358649789029  9.34114583333333 5.2936005625879  9.47055288461539 5.16350210970464  C 9.59995993589744 5.03340365682138  9.75320512820513 4.96835443037975  9.93028846153846 4.96835443037975  C 10.0324519230769 4.96835443037975  10.1175881410256 4.985935302391  10.1856971153846 5.0210970464135  C 10.6624599358974 5.21097046413502  11.0455729166667 5.5379746835443  11.3350360576923 6.00210970464135  Z M 13.5162259615385 4.52004219409283  C 14.0951522435897 5.43073136427567  14.3846153846154 6.42405063291139  14.3846153846154 7.5  C 14.3846153846154 8.57594936708861  14.0951522435897 9.56926863572433  13.5162259615385 10.4799578059072  C 12.9372996794872 11.39064697609  12.1710737179487 12.0534458509142  11.2175480769231 12.4683544303797  C 11.1290064102564 12.5035161744023  11.0438701923077 12.5210970464135  10.9621394230769 12.5210970464135  C 10.7782451923077 12.5210970464135  10.6215945512821 12.4542897327707  10.4921875 12.3206751054852  C 10.362780448718 12.1870604781997  10.2980769230769 12.0288326300985  10.2980769230769 11.8459915611814  C 10.2980769230769 11.5717299578059  10.4308894230769 11.3642756680731  10.6965144230769 11.2236286919831  C 11.0779246794872 11.0196905766526  11.3367387820513 10.8649789029536  11.4729567307692 10.7594936708861  C 11.9769631410256 10.379746835443  12.3702924679487 9.90330520393811  12.6529447115385 9.33016877637131  C 12.9355969551282 8.7570323488045  13.0769230769231 8.14697609001406  13.0769230769231 7.5  C 13.0769230769231 6.85302390998593  12.9355969551282 6.2429676511955  12.6529447115385 5.66983122362869  C 12.3702924679487 5.09669479606188  11.9769631410256 4.62025316455696  11.4729567307692 4.24050632911392  C 11.3367387820513 4.13502109704641  11.0779246794872 3.9803094233474  10.6965144230769 3.77637130801688  C 10.4308894230769 3.63572433192686  10.2980769230769 3.42827004219409  10.2980769230769 3.15400843881856  C 10.2980769230769 2.97116736990155  10.362780448718 2.81293952180028  10.4921875 2.67932489451477  C 10.6215945512821 2.54571026722925  10.7748397435897 2.4789029535865  10.9519230769231 2.4789029535865  C 11.0404647435897 2.4789029535865  11.1290064102564 2.49648382559775  11.2175480769231 2.53164556962025  C 12.1710737179487 2.94655414908579  12.9372996794872 3.60935302390998  13.5162259615385 4.52004219409283  Z M 15.7025240384615 3.04324894514768  C 16.5675080128205 4.39697609001406  17 5.88255977496484  17 7.5  C 17 9.11744022503516  16.5675080128205 10.6030239099859  15.7025240384615 11.9567510548523  C 14.8375400641026 13.3104781997187  13.6864983974359 14.3073136427567  12.2493990384615 14.9472573839662  C 12.1608573717949 14.9824191279887  12.0723157051282 15  11.9837740384615 15  C 11.8066907051282 15  11.6534455128205 14.9331926863572  11.5240384615385 14.7995780590717  C 11.3946314102564 14.6659634317862  11.3299278846154 14.5077355836849  11.3299278846154 14.3248945147679  C 11.3299278846154 14.0717299578059  11.4627403846154 13.8642756680731  11.7283653846154 13.7025316455696  C 11.7760416666667 13.6744022503516  11.8526642628205 13.637482419128  11.9582331730769 13.5917721518987  C 12.0638020833333 13.5460618846695  12.1404246794872 13.5091420534459  12.1881009615385 13.4810126582278  C 12.5014022435897 13.3052039381153  12.7806490384615 13.1258790436006  13.0258413461538 12.9430379746835  C 13.8635817307692 12.303094233474  14.5174278846154 11.5049226441631  14.9873798076923 10.5485232067511  C 15.4573317307692 9.59212376933896  15.6923076923077 8.57594936708861  15.6923076923077 7.5  C 15.6923076923077 6.42405063291139  15.4573317307692 5.40787623066104  14.9873798076923 4.45147679324895  C 14.5174278846154 3.49507735583685  13.8635817307692 2.69690576652602  13.0258413461538 2.05696202531646  C 12.7806490384615 1.87412095639944  12.5014022435897 1.69479606188467  12.1881009615385 1.51898734177215  C 12.1404246794872 1.49085794655415  12.0638020833333 1.45393811533052  11.9582331730769 1.40822784810127  C 11.8526642628205 1.36251758087201  11.7760416666667 1.32559774964838  11.7283653846154 1.29746835443038  C 11.4627403846154 1.13572433192686  11.3299278846154 0.928270042194092  11.3299278846154 0.675105485232068  C 11.3299278846154 0.492264416315047  11.3946314102564 0.334036568213782  11.5240384615385 0.20042194092827  C 11.6534455128205 0.066807313642756  11.8066907051282 0  11.9837740384615 0  C 12.0723157051282 0  12.1608573717949 0.0175808720112508  12.2493990384615 0.0527426160337557  C 13.6864983974359 0.692686357243317  14.8375400641026 1.68952180028129  15.7025240384615 3.04324894514768  Z " fill-rule="nonzero" fill="#555555" stroke="none" transform="matrix(1 0 0 1 628 1300 )" />
  </g>
</svg>