<?xml version="1.0" encoding="utf-8"?>
<svg version="1.1" xmlns:xlink="http://www.w3.org/1999/xlink" width="150px" height="28px" xmlns="http://www.w3.org/2000/svg">
  <defs>
    <mask fill="white" id="clip71">
      <path d="M 0 24  L 0 4  C 0 1.76000000000001  1.31999999999999 0  3 0  L 105 0  L 147 0  C 148.68 0  150 1.76000000000001  150 4  L 150 24  C 150 26.24  148.68 28  147 28  L 3 28  C 1.31999999999999 28  0 26.24  0 24  Z " fill-rule="evenodd" />
    </mask>
  </defs>
  <g transform="matrix(1 0 0 1 -239 -118 )">
    <path d="M 0 24  L 0 4  C 0 1.76000000000001  1.31999999999999 0  3 0  L 105 0  L 147 0  C 148.68 0  150 1.76000000000001  150 4  L 150 24  C 150 26.24  148.68 28  147 28  L 3 28  C 1.31999999999999 28  0 26.24  0 24  Z " fill-rule="nonzero" fill="#ffffff" stroke="none" transform="matrix(1 0 0 1 239 118 )" />
    <path d="M 0 24  L 0 4  C 0 1.76000000000001  1.31999999999999 0  3 0  L 105 0  L 147 0  C 148.68 0  150 1.76000000000001  150 4  L 150 24  C 150 26.24  148.68 28  147 28  L 3 28  C 1.31999999999999 28  0 26.24  0 24  Z " stroke-width="2" stroke="#cccccc" fill="none" transform="matrix(1 0 0 1 239 118 )" mask="url(#clip71)" />
  </g>
</svg>