<?xml version="1.0" encoding="utf-8"?>
<svg version="1.1" xmlns:xlink="http://www.w3.org/1999/xlink" width="16px" height="16px" xmlns="http://www.w3.org/2000/svg">
  <g transform="matrix(1 0 0 1 -449 -1384 )">
    <path d="M 457 1385  C 460.92 1385  464 1388.08  464 1392  C 464 1395.92  460.92 1399  457 1399  C 453.08 1399  450 1395.92  450 1392  C 450 1388.08  453.08 1385  457 1385  Z " fill-rule="nonzero" fill="#ffffff" stroke="none" />
    <path d="M 457 1385  C 460.92 1385  464 1388.08  464 1392  C 464 1395.92  460.92 1399  457 1399  C 453.08 1399  450 1395.92  450 1392  C 450 1388.08  453.08 1385  457 1385  Z " stroke-width="2" stroke="#409eff" fill="none" />
  </g>
</svg>