<?xml version="1.0" encoding="utf-8"?>
<svg version="1.1" xmlns:xlink="http://www.w3.org/1999/xlink" width="202px" height="114px" xmlns="http://www.w3.org/2000/svg">
  <g transform="matrix(1 0 0 1 -1308 -1092 )">
    <path d="M 1308 1092  L 1510 1092  L 1510 1206  L 1308 1206  L 1308 1092  " fill-rule="nonzero" fill="#cccccc" stroke="none" />
    <path d="M 1316 1100  L 1502 1100  L 1502 1198  L 1316 1198  L 1316 1100  " fill-rule="nonzero" fill="#ffffff" stroke="none" />
    <path d="M 1421.59 1126.2  C 1416.802 1126.2  1413.04 1122.438  1413.04 1117.65  C 1413.04 1112.862  1416.802 1109.1  1421.59 1109.1  C 1426.378 1109.1  1430.14 1112.862  1430.14 1117.65  C 1430.14 1122.438  1426.378 1126.2  1421.59 1126.2  " fill-rule="nonzero" fill="#cccccc" stroke="none" />
    <path d="M 1319 1195  L 1319 1144.4  L 1364 1121.4  L 1427 1163.84752475248  L 1463 1135.2  L 1499 1163.84752475248  L 1499 1195  L 1319 1195  " fill-rule="nonzero" fill="#169bd5" stroke="none" />
  </g>
</svg>